# xmcd
#
# Track frame offsets: 
#        150
#        12565
#        25645
#        36624
#        50037
#        58964
#        73344
#        82423
#        102994
#        118657
#        128141
#        139850
#        155576
#        173308
#        183632
#        195993
#        208319
#        219881
#        232602
#        243694
#        258107
#        268323
#        280493
#        293676
#        306101
#        316999
#        328553
#
# Disc length: 4587 seconds
#
# Revision: 0
# Processed by: cddbd v1.5.1PL2 Copyright (c) Steve Scherf et al.
# Submitted via: ExactAudioCopy v0.95b3
#
DISCID=a111e91b
DTITLE=Various Artist - Conor's Birthday Compilation [A Tim Allon Compilation
DTITLE=]
DYEAR=1900
DGENRE=A Cappella
TTITLE0=Elvis Presley/Crawfish
TTITLE1=The Spencer Davis Group/I'm a Man
TTITLE2=J J Barnes/Chains of Love
TTITLE3=The Lewis Sisters/Don't Let Me Live Without Your Love
TTITLE4=Lorraine Silver/Lost Summer Love
TTITLE5=The Four Seasons/Too Many Memories
TTITLE6=Jet Harris and Tony Meehan/Theme From 'The Man With the Golden A
TTITLE6=rm'
TTITLE7=The Upsetters/Blackboard Jungle Dub (version 1)
TTITLE8=The Abysinnians/Satta Massagana
TTITLE9=Something Real/Yes I Do
TTITLE10=The Soul Brothers/Mama Soul
TTITLE11=Stretch/Why Did You Do it?
TTITLE12=Bootsy Collins/What So Never the Dance
TTITLE13=The Nilsmen/Sand Step
TTITLE14=The Last Poets/Wake Up Niggers
TTITLE15=Joe Bataan/Young, Gifted and Brown
TTITLE16=Peggy Scott and Jo Jo Benson/I Want to Love You
TTITLE17=Pretty Purdie/Funky Donkey
TTITLE18=Loose Ends/Taxman
TTITLE19=The Sorrows/Take a Heart
TTITLE20=The Small Faces/Grow Your Own
TTITLE21=Classics IV/Spooky
TTITLE22=Johnny Johnson and The Bandwagon/Stoned Soul Picnic
TTITLE23=Jimmmy James and The Vagabonds/Red Red Wine
TTITLE24=Pierre Bachelet and Hervé Roy/Cigarette Act
TTITLE25=The Lovin' Spoonful/Coconut Grove
TTITLE26=Kenny Lynch/Movin' Away
EXTD=
EXTT0=
EXTT1=
EXTT2=
EXTT3=
EXTT4=
EXTT5=
EXTT6=
EXTT7=
EXTT8=
EXTT9=
EXTT10=
EXTT11=
EXTT12=
EXTT13=
EXTT14=
EXTT15=
EXTT16=
EXTT17=
EXTT18=
EXTT19=
EXTT20=
EXTT21=
EXTT22=
EXTT23=
EXTT24=
EXTT25=
EXTT26=
PLAYORDER=
